# xmcd CD database file
#
# Track frame offsets:
#	150
#	13362
#	40165
#	53250
#	64212
#	79080
#	98305
#	112350
#	133235
#	152457
#	166842
#	184290
#	200204
#	214347
#	232962
#	256622
#	263374
#	278592
#
# Disc length: 3895 seconds
#
# Revision: 0
# Processed by: cddbd v1.5.2PL0 Copyright (c) Steve Scherf et al.
# Submitted via: CDex 1.70beta2
#
DISCID=f10f3512
DTITLE=憂歌団 - ツイン・ベスト CD1
DYEAR=1900
DGENRE=Blues
TTITLE0=嫌んなった
TTITLE1=シカゴ・バウンド
TTITLE2=ちょいとそこ行くネエチャン
TTITLE3=ドツボ節
TTITLE4=おそうじオバチャン
TTITLE5=ひとり暮し
TTITLE6=はんか街のはんぱ女
TTITLE7=グッパイ・ベイビー
TTITLE8=ヘビー・スモーカー
TTITLE9=ボクサー
TTITLE10=スティーリン
TTITLE11=ステイ・ウィズ・ユー・フォー・エバー
TTITLE12=１０＄の恋
TTITLE13=パチンコ～ラン・ラン・ブルース
TTITLE14=ステイ・ウィズ・ユー・フォー・エバー
TTITLE15=イコマ
TTITLE16=憂歌団のテーマ
TTITLE17=Boogie To The Boo
EXTD=
EXTT0=
EXTT1=
EXTT2=
EXTT3=
EXTT4=
EXTT5=
EXTT6=
EXTT7=
EXTT8=
EXTT9=
EXTT10=
EXTT11=
EXTT12=
EXTT13=
EXTT14=
EXTT15=
EXTT16=
EXTT17=
PLAYORDER=
